{"title":"Unlucky Stars (2016) 1080P WEB-DL AAC2 0 H 264","uid":13425624,"size":3086813450,"categoryP":"video","categoryS":"hd___movies","magnet":"?xt=urn:btih:6742e374a2e111ddc9e9ab7c033ce129e3c7f9c3&amp;dn=Unlucky+Stars+%282016%29+1080P+WEB-DL+AAC2+0+H+264&amp;tr=udp%3A%2F%2Ftracker.leechers-paradise.org%3A6969&amp;tr=udp%3A%2F%2Fzer0day.ch%3A1337&amp;tr=udp%3A%2F%2Fopen.demonii.com%3A1337&amp;tr=udp%3A%2F%2Ftracker.coppersurfer.tk%3A6969&amp;tr=udp%3A%2F%2Fexodus.desync.com%3A6969","seeders":0,"leechers":1,"uploader":"jmanwf","files":2,"time":1454589559,"description":"Josh Whitman is new to the world of private investigation, but his fighting abilities are all the qualification private eye Ken Champaco needs to take him on as his new partner. Their latest case involves tracking down D-list Peruvian action star Tomas De La Cruz, who owes a sizeable amount of cash to local bookie/gangster Sam. Their mission is complicated when La Cruz’s obsessive fanboy, the mostly talentless would-be action star Sameer Yousef, and struggling stunt man David Palatkinov unwittingly step into the mix, and as all of their parallel stories begin to converge, Josh and Ken soon discover that this isn’t going to be the easy payday they were hoping for!\r\n\r\n\r\nVideo\r\nID : 2\r\nFormat : AVC\r\nFormat/Info : Advanced Video Codec\r\nFormat profile :   \r\nFormat settings, CABAC : Yes\r\nFormat settings, ReFrames : 5 frames\r\nCodec ID : avc1\r\nCodec ID/Info : Advanced Video Coding\r\nDuration : 1h 39mn\r\nBit rate : 4 016 Kbps\r\nWidth : 1 920 pixels\r\nHeight : 812 pixels\r\nDisplay aspect ratio : 2.35:1\r\nFrame rate mode : Constant\r\nFrame rate : 23.976 fps\r\nColor space : YUV\r\nChroma subsampling : 4:2:0\r\nBit depth : 8 bits\r\nScan type : Progressive\r\nBits/(Pixel*Frame) : 0.107\r\nStream size : 2.79 GiB (97%)\r\nLanguage : English\r\nEncoded date : UTC 2016-02-04 07:32:13\r\nTagged date : UTC 2016-02-04 07:38:52\r\nColor range : Limited\r\nColor primaries : BT.709\r\nTransfer characteristics : BT.709\r\nMatrix coefficients : BT.709\r\n\r\nAudio\r\nID : 1\r\nFormat : AAC\r\nFormat/Info : Advanced Audio Codec\r\nFormat profile : LC\r\nCodec ID : 40\r\nDuration : 1h 39mn\r\nBit rate mode : Variable\r\nBit rate : 124 Kbps\r\nMaximum bit rate : 197 Kbps\r\nChannel(s) : 2 channels\r\nChannel positions : Front: L R\r\nSampling rate : 48.0 KHz\r\nCompression mode : Lossy\r\nStream size : 88.0 MiB (3%)\r\nLanguage : English\r\nEncoded date : UTC 2016-02-04 07:32:13\r\nTagged date : UTC 2016-02-04 07:38:52\r\n\r\nText\r\nID : 3-CC1\r\nFormat : EIA-608\r\nMuxing mode : Final Cut\r\nCodec ID : c608\r\nDuration : 1h 39mn\r\nBit rate mode : Constant\r\nStream size : 0.00 Byte (0%)\r\nLanguage Encoded date : UTC 2016-02-04 07:32:13\r\nTagged date : UTC 2016-02-04 07:32:24\r\n\r\n\r\n \nhttp://s8.postimg.org/ypm3z9lg5/image.jpg\r\n\r\n\r\n\r\n \nhttp://s8.postimg.org/hnt9x66l1/image.jpg\r\n\r\n\r\n\r\n\r\n \nhttps://itunes.apple.com/us/movie/unlucky-stars/id1074221023","torrent":{"xt":"urn:btih:6742e374a2e111ddc9e9ab7c033ce129e3c7f9c3","amp;dn":"Unlucky+Stars+%282016%29+1080P+WEB-DL+AAC2+0+H+264","amp;tr":["udp%3A%2F%2Ftracker.leechers-paradise.org%3A6969","udp%3A%2F%2Fzer0day.ch%3A1337","udp%3A%2F%2Fopen.demonii.com%3A1337","udp%3A%2F%2Ftracker.coppersurfer.tk%3A6969","udp%3A%2F%2Fexodus.desync.com%3A6969"],"infoHash":"6742e374a2e111ddc9e9ab7c033ce129e3c7f9c3","infoHashBuffer":{"type":"Buffer","data":[103,66,227,116,162,225,17,221,201,233,171,124,3,60,225,41,227,199,249,195]},"announce":[],"urlList":[]}}